<svg width="28" height="28" viewBox="0 0 28 28" fill="none" xmlns="http://www.w3.org/2000/svg">
<path d="M25.7228 7.61031C25.6821 7.55667 25.6295 7.51317 25.5691 7.4832C25.5088 7.45322 25.4424 7.43758 25.375 7.4375H5.92266L4.79609 3.38297C4.77053 3.2909 4.71553 3.20972 4.63949 3.15185C4.56345 3.09398 4.47056 3.0626 4.375 3.0625H1.75C1.63397 3.0625 1.52269 3.10859 1.44064 3.19064C1.35859 3.27269 1.3125 3.38397 1.3125 3.5C1.3125 3.61603 1.35859 3.72731 1.44064 3.80936C1.52269 3.89141 1.63397 3.9375 1.75 3.9375H4.04688L7.97234 18.0852C8.10122 18.5453 8.37682 18.9508 8.75725 19.2401C9.13767 19.5293 9.60212 19.6864 10.08 19.6875H20.8906C21.3685 19.6864 21.833 19.5293 22.2134 19.2401C22.5938 18.9508 22.8694 18.5453 22.9983 18.0852L25.8016 7.99203C25.8188 7.92665 25.8207 7.85815 25.807 7.79192C25.7934 7.72569 25.7645 7.66352 25.7228 7.61031ZM22.1495 17.8511C22.073 18.1266 21.9087 18.3696 21.6815 18.5431C21.4542 18.7167 21.1765 18.8112 20.8906 18.8125H10.08C9.79315 18.8124 9.51421 18.7184 9.28587 18.5448C9.05753 18.3711 8.89236 18.1275 8.81562 17.8511L6.16547 8.3125H24.7997L22.1495 17.8511ZM10.9375 23.625C10.9375 23.8846 10.8605 24.1383 10.7163 24.3542C10.5721 24.57 10.3671 24.7383 10.1273 24.8376C9.88744 24.9369 9.62354 24.9629 9.36894 24.9123C9.11434 24.8616 8.88048 24.7366 8.69692 24.5531C8.51337 24.3695 8.38836 24.1357 8.33772 23.8811C8.28708 23.6265 8.31307 23.3626 8.41241 23.1227C8.51175 22.8829 8.67998 22.6779 8.89581 22.5337C9.11165 22.3895 9.36541 22.3125 9.625 22.3125C9.9731 22.3125 10.3069 22.4508 10.5531 22.6969C10.7992 22.9431 10.9375 23.2769 10.9375 23.625ZM22.3125 23.625C22.3125 23.8846 22.2355 24.1383 22.0913 24.3542C21.9471 24.57 21.7421 24.7383 21.5023 24.8376C21.2624 24.9369 20.9985 24.9629 20.7439 24.9123C20.4893 24.8616 20.2555 24.7366 20.0719 24.5531C19.8884 24.3695 19.7634 24.1357 19.7127 23.8811C19.6621 23.6265 19.6881 23.3626 19.7874 23.1227C19.8867 22.8829 20.055 22.6779 20.2708 22.5337C20.4867 22.3895 20.7404 22.3125 21 22.3125C21.3481 22.3125 21.6819 22.4508 21.9281 22.6969C22.1742 22.9431 22.3125 23.2769 22.3125 23.625Z" fill="white"/>
</svg>
