<svg width="28" height="28" viewBox="0 0 28 28" fill="none" xmlns="http://www.w3.org/2000/svg">
<path fill-rule="evenodd" clip-rule="evenodd" d="M14 15.75C15.2377 15.75 16.4247 15.2583 17.2999 14.3831C18.175 13.508 18.6667 12.321 18.6667 11.0833C18.6667 9.84562 18.175 8.65863 17.2999 7.78346C16.4247 6.90829 15.2377 6.41663 14 6.41663C12.7624 6.41663 11.5754 6.90829 10.7002 7.78346C9.82504 8.65863 9.33337 9.84562 9.33337 11.0833C9.33337 12.321 9.82504 13.508 10.7002 14.3831C11.5754 15.2583 12.7624 15.75 14 15.75ZM14 14.5833C14.4597 14.5833 14.9148 14.4928 15.3394 14.3169C15.7641 14.141 16.1499 13.8832 16.4749 13.5582C16.7999 13.2332 17.0577 12.8473 17.2336 12.4227C17.4095 11.998 17.5 11.5429 17.5 11.0833C17.5 10.6237 17.4095 10.1685 17.2336 9.7439C17.0577 9.31926 16.7999 8.93342 16.4749 8.60842C16.1499 8.28341 15.7641 8.02561 15.3394 7.84971C14.9148 7.67382 14.4597 7.58329 14 7.58329C13.0718 7.58329 12.1815 7.95204 11.5252 8.60842C10.8688 9.2648 10.5 10.155 10.5 11.0833C10.5 12.0115 10.8688 12.9018 11.5252 13.5582C12.1815 14.2145 13.0718 14.5833 14 14.5833Z" fill="white"/>
<path fill-rule="evenodd" clip-rule="evenodd" d="M25.6667 14C25.6667 20.4435 20.4435 25.6666 14 25.6666C7.55654 25.6666 2.33337 20.4435 2.33337 14C2.33337 7.55648 7.55654 2.33331 14 2.33331C20.4435 2.33331 25.6667 7.55648 25.6667 14ZM19.6175 22.8725C17.9383 23.939 15.9893 24.5037 14 24.5C11.9632 24.5037 9.96983 23.9116 8.26529 22.7966C8.12529 22.6216 7.98335 22.4408 7.83946 22.2541C7.67257 22.0355 7.58254 21.7679 7.58337 21.4929C7.58337 20.8646 8.03487 20.3379 8.63862 20.2498C12.6315 19.6665 15.3808 19.7166 19.379 20.2702C19.6683 20.3125 19.9327 20.458 20.1234 20.6797C20.3141 20.9015 20.4182 21.1847 20.4167 21.4771C20.4167 21.7571 20.3205 22.029 20.1466 22.2413C19.9673 22.4595 19.791 22.6699 19.6175 22.8725ZM21.5746 21.2718C21.4813 20.1798 20.6524 19.2686 19.5388 19.1146C15.4461 18.5482 12.5855 18.494 8.47004 19.0954C7.35004 19.2587 6.52462 20.1781 6.42662 21.273C4.54556 19.3194 3.49633 16.7119 3.50004 14C3.50004 8.20106 8.20112 3.49998 14 3.49998C19.799 3.49998 24.5 8.20106 24.5 14C24.5038 16.7114 23.455 19.3184 21.5746 21.2718Z" fill="white"/>
</svg>
