<svg width="28" height="28" viewBox="0 0 28 28" fill="none" xmlns="http://www.w3.org/2000/svg">
<path fill-rule="evenodd" clip-rule="evenodd" d="M6.67567 7.93332C5.59884 9.30532 5.21034 10.5945 5.25234 11.795C5.29667 13.0141 5.78667 14.2077 6.57767 15.365C8.17251 17.6937 10.8873 19.7248 13.1215 21.3033C13.6488 21.6766 14.3465 21.6766 14.8738 21.3033C17.1255 19.7167 19.8392 17.6867 21.4305 15.3591C22.2192 14.2042 22.7057 13.0118 22.7477 11.795C22.7873 10.5945 22.3977 9.30532 21.3185 7.93332C19.4285 5.93715 16.7067 5.99665 14.854 7.60898C14.6158 7.81404 14.312 7.92682 13.9977 7.92682C13.6834 7.92682 13.3795 7.81404 13.1413 7.60898C11.2875 5.99782 8.56801 5.93598 6.67567 7.93332ZM5.80884 7.15398C8.16084 4.65148 11.6072 4.73082 13.9067 6.73048C13.9323 6.75141 13.9646 6.76257 13.9977 6.76198C14.0366 6.76043 14.0665 6.74993 14.0875 6.73048C16.3858 4.73082 19.8368 4.65032 22.1865 7.15515L22.204 7.17265L22.2192 7.19248C23.4547 8.75582 23.9645 10.3157 23.9132 11.8358C23.863 13.3432 23.2622 14.7466 22.393 16.0183C20.6663 18.543 17.7812 20.6827 15.547 22.2588C15.0937 22.5793 14.5521 22.7513 13.9969 22.7511C13.4417 22.7509 12.9003 22.5785 12.4472 22.2576C10.2305 20.6896 7.34417 18.55 5.61517 16.0241C4.74484 14.7525 4.14051 13.3467 4.08684 11.8382C4.03317 10.3168 4.54067 8.75698 5.77617 7.19248L5.79134 7.17265L5.80884 7.15398Z" fill="white"/>
</svg>
